<?xml version="1.0" standalone="no"?>
<!DOCTYPE svg PUBLIC "-//W3C//DTD SVG 20010904//EN"
 "http://www.w3.org/TR/2001/REC-SVG-20010904/DTD/svg10.dtd">
<svg version="1.0" xmlns="http://www.w3.org/2000/svg"
 width="1018.000000pt" height="1280.000000pt" viewBox="0 0 1018.000000 1280.000000"
 preserveAspectRatio="xMidYMid meet">
<g transform="translate(0.000000,1280.000000) scale(0.100000,-0.100000)"
fill="yellow" stroke="none">
<path d="M5850 12794 c-225 -27 -377 -77 -521 -170 -141 -92 -225 -193 -277
-336 l-27 -73 -3 -3622 c-1 -1993 -6 -3623 -10 -3623 -5 0 -42 11 -83 26 -284
97 -597 146 -949 147 -333 0 -646 -39 -971 -122 -1353 -345 -2525 -1325 -2888
-2416 -149 -448 -159 -854 -31 -1260 42 -133 154 -358 237 -475 83 -117 318
-354 428 -431 315 -222 690 -358 1140 -415 191 -24 583 -24 785 0 1190 143
2354 803 3020 1713 323 442 505 905 540 1373 6 85 10 1462 10 3789 0 2010 2
3657 5 3660 7 6 134 -23 280 -66 1208 -351 2174 -1433 2842 -3183 76 -200 160
-439 233 -665 191 -591 206 -631 254 -683 71 -79 194 -70 253 17 34 50 42 90
54 261 12 155 12 155 -19 305 -205 996 -408 1738 -702 2570 -240 678 -571
1375 -904 1898 -712 1121 -1610 1762 -2496 1782 -91 2 -181 1 -200 -1z"/>
</g>
</svg>
